<svg id="eXSND8ZplLe1" xmlns="http://www.w3.org/2000/svg" xmlns:xlink="http://www.w3.org/1999/xlink" viewBox="0 0 24 24" shape-rendering="geometricPrecision" text-rendering="geometricPrecision" project-id="9fc9e223fd5a4a738a3e34d3be41eb1e" export-id="623ba66fa9b14ec39fa8451ddb03a4e5" cached="false"><path d="M0,0h24v24h-24L0,0Z" fill="none" stroke-width="2" stroke-linecap="round" stroke-linejoin="round"/><g transform="translate(2.485437 0.5)"><path d="M17,5h2c.552285,0,1,.447715,1,1v1c0,.552285-.447715,1-1,1h-1c-.552285,0-1,.447715-1,1v1c0,.552285.447715,1,1,1h2" fill="none" stroke="#000" stroke-width="2" stroke-linecap="round" stroke-linejoin="round"/><path d="M4,12v6" transform="translate(1.967637 0)" fill="none" stroke="#000" stroke-width="2" stroke-linecap="round" stroke-linejoin="round"/><path d="M4,14c0-1.104569.895431-2,2-2h.5C7.880712,12,9,13.119288,9,14.5v3.5" transform="translate(1.967637 0)" fill="none" stroke="#000" stroke-width="2" stroke-linecap="round" stroke-linejoin="round"/><path d="M9,15.5v-1c0-1.380712,1.119288-2.5,2.5-2.5s2.5,1.119288,2.5,2.5v3.5" transform="translate(1.967637 0)" fill="none" stroke="#000" stroke-width="2" stroke-linecap="round" stroke-linejoin="round"/></g><g transform="matrix(.606257 0 0 0.606257-6.770229 8.224916)"><path d="M0,0h24v24h-24L0,0Z" fill="none" stroke-width="2" stroke-linecap="round" stroke-linejoin="round"/><path d="M15,8h1v8" transform="translate(1.139159-4.933657)" fill="none" stroke="#000" stroke-width="2" stroke-linecap="round" stroke-linejoin="round"/><path d="M15,8h1v7.70247" transform="matrix(.488491 0 0 0.46411 5.183621 12.570233)" fill="none" stroke="#000" stroke-width="2" stroke-linecap="round" stroke-linejoin="round"/></g><g transform="matrix(.704629 0 0 0.704629 1.110795 5.371312)"><path d="M0,0h24v24h-24L0,0Z" fill="none" stroke-width="2" stroke-linecap="round" stroke-linejoin="round"/><path d="M4,4h4.401295" transform="translate(-2.537217 11.914239)" fill="none" stroke="#000" stroke-width="2" stroke-linecap="round" stroke-linejoin="round"/></g><g><path d="M0,0h24v24h-24L0,0Z" fill="none" stroke-width="2" stroke-linecap="round" stroke-linejoin="round"/></g><g><path d="M0,0h24v24h-24L0,0Z" fill="none" stroke-width="2" stroke-linecap="round" stroke-linejoin="round"/></g><g><path d="M0,0h24v24h-24L0,0Z" fill="none" stroke-width="2" stroke-linecap="round" stroke-linejoin="round"/></g><g><path d="M0,0h24v24h-24L0,0Z" fill="none" stroke-width="2" stroke-linecap="round" stroke-linejoin="round"/></g><g><path d="M0,0h24v24h-24L0,0Z" fill="none" stroke-width="2" stroke-linecap="round" stroke-linejoin="round"/></g><g><path d="M0,0h24v24h-24L0,0Z" fill="none" stroke-width="2" stroke-linecap="round" stroke-linejoin="round"/><g transform="matrix(.481382 0 0 0.481382 1.391738 12.12633)"><path d="" fill="none" stroke="#000" stroke-width="2" stroke-linecap="round" stroke-linejoin="round"/></g></g><g><path d="M0,0h24v24h-24L0,0Z" fill="none" stroke-width="2" stroke-linecap="round" stroke-linejoin="round"/></g><g><path d="M0,0h24v24h-24L0,0Z" fill="none" stroke-width="2" stroke-linecap="round" stroke-linejoin="round"/></g><g transform="translate(-4.849446 4.952812)"><path d="M0,0h24v24h-24L0,0Z" fill="none" stroke-width="2" stroke-linecap="round" stroke-linejoin="round"/></g><g transform="translate(-4.849446 4.952812)"><path d="M0,0h24v24h-24L0,0Z" fill="none" stroke-width="2" stroke-linecap="round" stroke-linejoin="round"/></g><g transform="translate(-4.849446 4.952812)"><path d="M0,0h24v24h-24L0,0Z" fill="none" stroke-width="2" stroke-linecap="round" stroke-linejoin="round"/></g><g transform="translate(-4.860119 5.408187)"><path d="M0,0h24v24h-24L0,0Z" fill="none" stroke-width="2" stroke-linecap="round" stroke-linejoin="round"/><path d="M9,8h3c.552285,0,1,.447715,1,1v2c0,.552285-.447715,1-1,1h-2c-.552285,0-1,.447715-1,1v2c0,.552285.447715,1,1,1h3" transform="matrix(.262431 0 0 0.262431 6.250394 10.590904)" fill="none" stroke="#000" stroke-width="2" stroke-linecap="round" stroke-linejoin="round"/></g><g transform="translate(-4.860119 5.408187)"><path d="M0,0h24v24h-24L0,0Z" fill="none" stroke-width="2" stroke-linecap="round" stroke-linejoin="round"/><path d="M14,10v4c0,1.104569.895431,2,2,2s2-.895431,2-2v-4c0-1.104569-.895431-2-2-2s-2,.895431-2,2" transform="matrix(.278912 0 0 0.278912 2.805518 10.393132)" fill="none" stroke="#000" stroke-width="2" stroke-linecap="round" stroke-linejoin="round"/></g><g transform="translate(-4.860119 5.408187)"><path d="M0,0h24v24h-24L0,0Z" fill="none" stroke-width="2" stroke-linecap="round" stroke-linejoin="round"/><g transform="matrix(.276136 0 0 0.276136 9.446097 10.481264)"><path d="M6,8v3c0,.552285.447715,1,1,1h3" transform="translate(-2.53498 0)" fill="none" stroke="#000" stroke-width="2" stroke-linecap="round" stroke-linejoin="round"/><path d="M10,8v7.696831" transform="translate(-2.390124 0.144856)" fill="none" stroke="#000" stroke-width="2" stroke-linecap="round" stroke-linejoin="round"/></g></g></svg>
