<svg id="eHDqvR4adKF1" xmlns="http://www.w3.org/2000/svg" xmlns:xlink="http://www.w3.org/1999/xlink" viewBox="0 0 24 24" shape-rendering="geometricPrecision" text-rendering="geometricPrecision" project-id="9fc9e223fd5a4a738a3e34d3be41eb1e" export-id="f35651c614334141908cfb0f8b78227a" cached="false"><path d="M0,0h24v24h-24L0,0Z" fill="none" stroke-width="2" stroke-linecap="round" stroke-linejoin="round"/><g transform="translate(2.485437 0.5)"><path d="M17,5h2c.552285,0,1,.447715,1,1v1c0,.552285-.447715,1-1,1h-1c-.552285,0-1,.447715-1,1v1c0,.552285.447715,1,1,1h2" fill="none" stroke="#000" stroke-width="2" stroke-linecap="round" stroke-linejoin="round"/><path d="M4,12v6" transform="translate(1.967637 0)" fill="none" stroke="#000" stroke-width="2" stroke-linecap="round" stroke-linejoin="round"/><path d="M4,14c0-1.104569.895431-2,2-2h.5C7.880712,12,9,13.119288,9,14.5v3.5" transform="translate(1.967637 0)" fill="none" stroke="#000" stroke-width="2" stroke-linecap="round" stroke-linejoin="round"/><path d="M9,15.5v-1c0-1.380712,1.119288-2.5,2.5-2.5s2.5,1.119288,2.5,2.5v3.5" transform="translate(1.967637 0)" fill="none" stroke="#000" stroke-width="2" stroke-linecap="round" stroke-linejoin="round"/></g><g transform="matrix(.606257 0 0 0.606257-6.770229 8.224916)"><path d="M0,0h24v24h-24L0,0Z" fill="none" stroke-width="2" stroke-linecap="round" stroke-linejoin="round"/><path d="M15,8h1v8" transform="translate(1.139159-4.933657)" fill="none" stroke="#000" stroke-width="2" stroke-linecap="round" stroke-linejoin="round"/></g><g transform="matrix(.704629 0 0 0.704629 1.110795 5.371312)"><path d="M0,0h24v24h-24L0,0Z" fill="none" stroke-width="2" stroke-linecap="round" stroke-linejoin="round"/><path d="M4,4h4.401295" transform="translate(-2.537217 11.914239)" fill="none" stroke="#000" stroke-width="2" stroke-linecap="round" stroke-linejoin="round"/></g><g><path d="M0,0h24v24h-24L0,0Z" fill="none" stroke-width="2" stroke-linecap="round" stroke-linejoin="round"/></g><g><path d="M0,0h24v24h-24L0,0Z" fill="none" stroke-width="2" stroke-linecap="round" stroke-linejoin="round"/></g><g><path d="M0,0h24v24h-24L0,0Z" fill="none" stroke-width="2" stroke-linecap="round" stroke-linejoin="round"/></g><g><path d="M0,0h24v24h-24L0,0Z" fill="none" stroke-width="2" stroke-linecap="round" stroke-linejoin="round"/></g><g><path d="M0,0h24v24h-24L0,0Z" fill="none" stroke-width="2" stroke-linecap="round" stroke-linejoin="round"/></g><g><path d="M0,0h24v24h-24L0,0Z" fill="none" stroke-width="2" stroke-linecap="round" stroke-linejoin="round"/><g transform="matrix(.481382 0 0 0.481382 1.391738 12.12633)"><path d="" fill="none" stroke="#000" stroke-width="2" stroke-linecap="round" stroke-linejoin="round"/></g></g><g><path d="M0,0h24v24h-24L0,0Z" fill="none" stroke-width="2" stroke-linecap="round" stroke-linejoin="round"/><path d="M3,10L5,8v8" transform="matrix(.267025 0 0 0.266307 0.30972 16.042683)" fill="none" stroke="#000" stroke-width="2" stroke-linecap="round" stroke-linejoin="round"/><path d="M9,8h3c.552285,0,1,.447715,1,1v2c0,.552285-.447715,1-1,1h-2c-.552285,0-1,.447715-1,1v2c0,.552285.447715,1,1,1h3" transform="matrix(.261907 0 0 0.261907 0.287363 16.113083)" fill="none" stroke="#000" stroke-width="2" stroke-linecap="round" stroke-linejoin="round"/></g><g><path d="M0,0h24v24h-24L0,0Z" fill="none" stroke-width="2" stroke-linecap="round" stroke-linejoin="round"/><path d="M16,12h-1c-.552285,0-1-.447715-1-1v-2c0-.552285.447715-1,1-1h2c.552285,0,1,.447715,1,1v2c0,.552285-.447715,1-1,1h-1Zm0,0h-1c-.552285,0-1,.447715-1,1v2c0,.552285.447715,1,1,1h2c.552285,0,1-.447715,1-1v-2c0-.552285-.447715-1-1-1" transform="matrix(.263111 0 0 0.263111 1.033018 16.093819)" fill="none" stroke="#000" stroke-width="2" stroke-linecap="round" stroke-linejoin="round"/></g></svg>
