<svg id="emOqpo6g5cE1" xmlns="http://www.w3.org/2000/svg" xmlns:xlink="http://www.w3.org/1999/xlink" viewBox="0 0 24 24" shape-rendering="geometricPrecision" text-rendering="geometricPrecision" project-id="9fc9e223fd5a4a738a3e34d3be41eb1e" export-id="922e3c4c2dfe49028d58e29aa639dedb" cached="false"><path d="M0,0h24v24h-24L0,0Z" fill="none" stroke-width="2" stroke-linecap="round" stroke-linejoin="round"/><g transform="translate(2.485437 0.5)"><path d="M17,5h2c.552285,0,1,.447715,1,1v1c0,.552285-.447715,1-1,1h-1c-.552285,0-1,.447715-1,1v1c0,.552285.447715,1,1,1h2" fill="none" stroke="#000" stroke-width="2" stroke-linecap="round" stroke-linejoin="round"/><path d="M17,5h2c.552285,0,1,.447715,1,1v1c0,.552285-.447715,1-1,1h-1c-.552285,0-1,.447715-1,1v1c0,.552285.447715,1,1,1h2" transform="matrix(.734717 0 0 0.734718-12.457195 11.193186)" fill="none" stroke="#000" stroke-width="2" stroke-linecap="round" stroke-linejoin="round"/><path d="M4,12v6" transform="translate(1.967637 0)" fill="none" stroke="#000" stroke-width="2" stroke-linecap="round" stroke-linejoin="round"/><path d="M4,14c0-1.104569.895431-2,2-2h.5C7.880712,12,9,13.119288,9,14.5v3.5" transform="translate(1.967637 0)" fill="none" stroke="#000" stroke-width="2" stroke-linecap="round" stroke-linejoin="round"/><path d="M9,15.5v-1c0-1.380712,1.119288-2.5,2.5-2.5s2.5,1.119288,2.5,2.5v3.5" transform="translate(1.967637 0)" fill="none" stroke="#000" stroke-width="2" stroke-linecap="round" stroke-linejoin="round"/></g><g transform="matrix(.606257 0 0 0.606257-6.770229 5.224916)"><path d="M0,0h24v24h-24L0,0Z" fill="none" stroke-width="2" stroke-linecap="round" stroke-linejoin="round"/><path d="M15,8h1v8" transform="translate(1.139159-4.933657)" fill="none" stroke="#000" stroke-width="2" stroke-linecap="round" stroke-linejoin="round"/></g><g transform="matrix(.704629 0 0 0.704629 1.110795 2.371312)"><path d="M0,0h24v24h-24L0,0Z" fill="none" stroke-width="2" stroke-linecap="round" stroke-linejoin="round"/><path d="M4,4h4.401295" transform="translate(-2.537217 11.914239)" fill="none" stroke="#000" stroke-width="2" stroke-linecap="round" stroke-linejoin="round"/></g></svg>
