<svg id="env43cupErH1" xmlns="http://www.w3.org/2000/svg" xmlns:xlink="http://www.w3.org/1999/xlink" viewBox="0 0 300 300" shape-rendering="geometricPrecision" text-rendering="geometricPrecision" project-id="74e951a3a3d54a16b4f442727ee3dc2c" export-id="ff9ca7515e514dddb45822502c5c3f50" cached="false"><rect width="46" height="46" rx="0" ry="0" transform="matrix(6.148868 0 0 0.175883 8.576036 90.29126)"/><rect width="46" height="46" rx="0" ry="0" transform="matrix(6.148868 0 0 0.175883 8.576036 27.508088)"/><rect width="46" height="46" rx="0" ry="0" transform="matrix(6.148868 0 0 0.175883 8.576036 279.288024)"/><rect width="46" height="46" rx="0" ry="0" transform="matrix(6.148868 0 0 0.175883 8.576036 153.398041)"/><rect width="46" height="46" rx="0" ry="0" transform="matrix(6.148868 0 0 0.175883 8.576036 215.210354)"/><g transform="matrix(0-1 1 0-7.443357 303.398093)"><rect width="46" height="46" rx="0" ry="0" transform="matrix(6.14887 0 0 0.175883 8.57604 90.2913)"/><rect width="46" height="46" rx="0" ry="0" transform="matrix(6.14887 0 0 0.175883 8.57604 27.5081)"/><rect width="46" height="46" rx="0" ry="0" transform="matrix(6.14887 0 0 0.175883 8.57604 279.288)"/><rect width="46" height="46" rx="0" ry="0" transform="matrix(6.14887 0 0 0.175883 8.57604 153.398)"/><rect width="46" height="46" rx="0" ry="0" transform="matrix(6.14887 0 0 0.175883 8.57604 215.21)"/></g></svg>
